<svg width="56" height="25" xmlns="http://www.w3.org/2000/svg"><path d="M40.781 21.92h-.64v1.003h.739v.537h-2.241v-.537h.64V21.92h-.64v-3.202h2.24l-.098 3.202ZM3.916 18.06h.738l.271.415c-.328.26-.587.587-.775.978a2.884 2.884 0 0 0-.284 1.27v.196c0 .065.009.13.025.195v2.126h-.985v-2.443h-.542v-1.613h.862c.099-.212.21-.412.332-.599.124-.187.267-.354.431-.5l-.073-.025Zm4.482 5.645a2.17 2.17 0 0 0 1.588-.648c.435-.432.653-.957.653-1.576 0-.62-.218-1.145-.653-1.576a2.17 2.17 0 0 0-1.588-.648c-.608 0-1.133.216-1.577.648a2.117 2.117 0 0 0-.664 1.576c0 .619.221 1.144.664 1.576.444.432.97.648 1.577.648Zm0-5.645c.968 0 1.793.338 2.474 1.014a3.332 3.332 0 0 1 1.022 2.456c0 .961-.34 1.78-1.022 2.456-.68.676-1.506 1.014-2.474 1.014-.953 0-1.774-.338-2.463-1.014A3.313 3.313 0 0 1 4.9 21.53a3.378 3.378 0 0 1 1.046-2.444c.682-.668 1.507-1.002 2.475-1.002h.074l-.098-.024Zm7.855 5.645c.608 0 1.133-.216 1.576-.648.444-.432.665-.957.665-1.576 0-.62-.221-1.145-.665-1.576a2.183 2.183 0 0 0-1.576-.648 2.17 2.17 0 0 0-1.588.648 2.137 2.137 0 0 0-.653 1.576c0 .619.218 1.144.653 1.576a2.17 2.17 0 0 0 1.588.648Zm0-5.645c.953 0 1.77.342 2.45 1.026.682.684 1.023 1.499 1.023 2.444 0 .961-.341 1.78-1.022 2.456-.682.676-1.507 1.014-2.475 1.014-.953 0-1.773-.338-2.463-1.014a3.313 3.313 0 0 1-1.034-2.456 3.378 3.378 0 0 1 1.046-2.444c.682-.668 1.507-1.002 2.475-1.002h.099l-.099-.024Zm7.708 5.645a2.17 2.17 0 0 0 1.589-.648c.435-.432.652-.957.652-1.576 0-.62-.217-1.145-.652-1.576a2.17 2.17 0 0 0-1.589-.648 2.17 2.17 0 0 0-1.588.648 2.137 2.137 0 0 0-.653 1.576c0 .619.218 1.144.653 1.576a2.17 2.17 0 0 0 1.588.648Zm0-5.645c.969 0 1.794.342 2.475 1.026.682.684 1.022 1.499 1.022 2.444 0 .961-.34 1.78-1.022 2.456-.681.676-1.506 1.014-2.475 1.014-.968 0-1.793-.338-2.475-1.014a3.332 3.332 0 0 1-1.022-2.456c0-.961.341-1.776 1.022-2.444.682-.668 1.507-1.002 2.475-1.002h.123l-.123-.024Zm13.594.66v3.25h-9.013v-3.25h9.013ZM55.458 0c.132 0 .25.045.357.134A.52.52 0 0 1 56 .49v16.74a.515.515 0 0 1-.16.379.553.553 0 0 1-.406.158H.542a.523.523 0 0 1-.382-.158.515.515 0 0 1-.16-.38V.539C0 .39.053.265.16.158A.523.523 0 0 1 .542 0h54.916ZM10.265 2.001H6.587L2.32 16.015h3.678l4.266-14.014Zm5.41 0h-3.332L8.076 16.015h3.526l4.074-14.014Zm5.487 0h-3.416l-4.074 14.014h3.03l4.46-14.014Zm6.025 0h-3.94L18.79 16.015h4.324l4.074-14.014Zm5.142 0h-3.072l-4.074 14.014h2.88l4.266-14.014Zm5.755 0h-3.677L30.14 16.015h3.678l4.266-14.014Zm5.756 0h-3.678l-4.266 14.014h3.678L43.84 2.001Zm5.756 0h-3.678l-4.266 14.014h3.678l4.266-14.014Zm4.437.001h-2.36l-4.265 14.013h3.525l3.1-10.664V2.002Zm0 10.471-1.03 3.542h1.03v-3.542ZM4.51 2.001l-2.523.001v8.286L4.51 2.001Z"/></svg>