<svg width="56" height="25" xmlns="http://www.w3.org/2000/svg"><path d="M40.781 21.92h-.64v1.003h.739v.537h-2.241v-.537h.64V21.92h-.64v-3.202h2.24l-.098 3.202ZM3.916 18.06h.738l.271.415c-.328.26-.587.587-.775.978a2.884 2.884 0 0 0-.284 1.27v.196c0 .065.009.13.025.195v2.126h-.985v-2.443h-.542v-1.613h.862c.099-.212.21-.412.332-.599.124-.187.267-.354.431-.5l-.073-.025Zm4.482 5.645a2.17 2.17 0 0 0 1.588-.648c.435-.432.653-.957.653-1.576 0-.62-.218-1.145-.653-1.576a2.17 2.17 0 0 0-1.588-.648c-.608 0-1.133.216-1.577.648a2.117 2.117 0 0 0-.664 1.576c0 .619.221 1.144.664 1.576.444.432.97.648 1.577.648Zm0-5.645c.968 0 1.793.338 2.474 1.014a3.332 3.332 0 0 1 1.022 2.456c0 .961-.34 1.78-1.022 2.456-.68.676-1.506 1.014-2.474 1.014-.953 0-1.774-.338-2.463-1.014A3.313 3.313 0 0 1 4.9 21.53a3.378 3.378 0 0 1 1.046-2.444c.682-.668 1.507-1.002 2.475-1.002h.074l-.098-.024Zm7.855 5.645c.608 0 1.133-.216 1.576-.648.444-.432.665-.957.665-1.576 0-.62-.221-1.145-.665-1.576a2.183 2.183 0 0 0-1.576-.648 2.17 2.17 0 0 0-1.588.648 2.137 2.137 0 0 0-.653 1.576c0 .619.218 1.144.653 1.576a2.17 2.17 0 0 0 1.588.648Zm0-5.645c.953 0 1.77.342 2.45 1.026.682.684 1.023 1.499 1.023 2.444 0 .961-.341 1.78-1.022 2.456-.682.676-1.507 1.014-2.475 1.014-.953 0-1.773-.338-2.463-1.014a3.313 3.313 0 0 1-1.034-2.456 3.378 3.378 0 0 1 1.046-2.444c.682-.668 1.507-1.002 2.475-1.002h.099l-.099-.024Zm7.708 5.645a2.17 2.17 0 0 0 1.589-.648c.435-.432.652-.957.652-1.576 0-.62-.217-1.145-.652-1.576a2.17 2.17 0 0 0-1.589-.648 2.17 2.17 0 0 0-1.588.648 2.137 2.137 0 0 0-.653 1.576c0 .619.218 1.144.653 1.576a2.17 2.17 0 0 0 1.588.648Zm0-5.645c.969 0 1.794.342 2.475 1.026.682.684 1.022 1.499 1.022 2.444 0 .961-.34 1.78-1.022 2.456-.681.676-1.506 1.014-2.475 1.014-.968 0-1.793-.338-2.475-1.014a3.332 3.332 0 0 1-1.022-2.456c0-.961.341-1.776 1.022-2.444.682-.668 1.507-1.002 2.475-1.002h.123l-.123-.024Zm13.594 3.91h-9.013v-3.25h9.013v3.25ZM55.458 0c.132 0 .25.045.357.134A.52.52 0 0 1 56 .49v16.74a.515.515 0 0 1-.16.379.553.553 0 0 1-.406.158l-35.066-.001c.022-.425.111-.704.325-1.115l.218-.407c.323-.623.444-1.065.444-1.83 0-.766-.12-1.208-.444-1.83l-.218-.408c-.253-.487-.331-.788-.331-1.367s.078-.88.33-1.366l.22-.407c.322-.623.443-1.065.443-1.83 0-.85-.15-1.3-.56-2.044l-.102-.192c-.253-.487-.331-.788-.331-1.367 0-.651.099-.95.434-1.558l.115-.215c.323-.622.444-1.064.444-1.829h34.103ZM20.362 0l-.004.205c-.021.516-.132.813-.43 1.353l-.116.215c-.323.622-.443 1.064-.443 1.829 0 .765.12 1.207.443 1.83l.219.407c.253.487.33.788.33 1.366 0 .652-.098.95-.433 1.558l-.116.215c-.323.623-.443 1.065-.443 1.83 0 .765.12 1.208.443 1.83l.219.408c.253.486.33.787.33 1.366 0 .58-.077.881-.33 1.368l-.219.407c-.286.552-.413.962-.439 1.58H.542a.523.523 0 0 1-.382-.16.515.515 0 0 1-.16-.378V.538C0 .39.053.265.16.158A.523.523 0 0 1 .542 0h19.82Zm32.28 1.001-1.986 3.77h1.507v8.475h-1.507l1.987 3.77 1.986-3.77h-1.336V4.771h1.336l-1.986-3.77ZM29.449 12.813v-1.246h-3.353c.29-.409.83-.861 1.621-1.358.527-.347.897-.643 1.11-.888.212-.245.362-.492.45-.74.088-.249.132-.523.132-.822 0-.654-.231-1.19-.694-1.608-.463-.42-1.042-.628-1.738-.628-.783 0-1.408.25-1.874.75-.466.5-.699 1.17-.699 2.006v.133h1.378c.007-.51.106-.912.299-1.205a.93.93 0 0 1 .825-.439c.331 0 .591.102.78.307.19.204.284.47.284.796a1.3 1.3 0 0 1-.086.47c-.057.15-.17.31-.34.48-.168.17-.573.47-1.215.898-.804.538-1.353 1.033-1.646 1.485-.294.453-.441.99-.441 1.609h5.207Zm.715 1.694c.486-.075.871-.268 1.155-.582.283-.313.425-.677.425-1.092V11.24h-1.59v1.573h.729v.071a.904.904 0 0 1-.198.556.87.87 0 0 1-.521.332v.735Zm4.98-1.694c.013-1.096.234-2.202.663-3.319.429-1.116.98-1.977 1.656-2.583V5.666H32.62v1.347h3.363a10.94 10.94 0 0 0-1.636 2.721 9.847 9.847 0 0 0-.745 3.079h1.54Zm7.304 0V9.739c0-.36.093-.651.278-.873a.87.87 0 0 1 .694-.331c.298 0 .517.081.659.245.142.163.213.47.213.918v3.115h1.438V9.862c0-.885.321-1.327.963-1.327.31 0 .535.088.674.265.138.177.207.497.207.96v3.053h1.439V9.27c0-.586-.154-1.045-.461-1.379-.307-.333-.789-.5-1.444-.5-.662 0-1.192.293-1.59.878-.257-.585-.767-.878-1.53-.878-.669 0-1.202.286-1.601.858h-.02v-.715h-1.358v5.279h1.439Z"/></svg>