<svg xmlns="http://www.w3.org/2000/svg" width="139" height="100" viewBox="0 0 139 100"><g fill="#0083B7" fill-rule="evenodd"><path d="M69.393.355C31.18.355.203 22.643.203 50.143c0 27.498 30.977 49.784 69.19 49.784 38.209 0 69.192-22.286 69.192-49.784 0-27.5-30.983-49.788-69.192-49.788zm.422 95.723c-33.784 0-61.174-20.563-61.174-45.935 0-25.374 27.39-45.94 61.174-45.94 33.782 0 61.17 20.566 61.17 45.94 0 25.372-27.388 45.935-61.17 45.935z"/><path d="M17.334 35.462v29.6s3.491 5.006 5.343 6.007V52.62h6.2v23.596s1.853 2.288 5.13 3.86V20.59s-4.988 3.288-5.13 3.717v22.308h-6.2V29.598s-3.633 3.004-5.343 5.864M76.47 49.046s8.124-3.573 8.124-17.588S73.618 12.866 64.5 13.582v73.645s20.237 3.576 20.237-21.593c0-10.153-5.559-14.73-8.267-16.588zm-6.269-29.887s8.15 1.711 8.407 12.728c.286 12.297-8.407 14.299-8.407 14.299V19.159zm0 61.49V53.622s8.15 1.711 8.407 12.728c.286 12.297-8.407 14.3-8.407 14.3zM88.298 15.155V86.08s8.79-1.43 13.775-4.717v-6.15s-4.657 2.722-8.076 3.291V53.05h8.076v-5.578h-8.076v-24.88s4.086.858 8.076 3.575v-6.292s-6.65-4.006-13.775-4.72M116.655 52.908c3.135-2.146 6.128-5.291 6.128-10.582-.145-13.728-16.672-20.02-16.672-20.02v57.198c2.564-.429 5.416-3.86 5.416-3.86V55.91l8.263 12.584c2.281-1.86 3.42-5.291 3.42-5.291l-6.555-10.295zm-5.128-4.29V32.314s5.984 3.86 5.984 9.437c0 5.15-5.984 6.865-5.984 6.865zM46.047 16.443s-2.35.002-5.771 2.002v59.772s0 6.866 9.262 6.866c9.263 0 8.836-6.578 8.836-6.578V13.297s-4.276.43-5.558 1.286v62.492s-.713 2.429-3.278 2.429c-2.564 0-3.49-2.43-3.49-2.43v-60.63"/></g></svg>