<svg width="83" height="25" xmlns="http://www.w3.org/2000/svg"><path d="M56.403 18.101c.942 0 1.745.336 2.408 1.008.663.673.994 1.486.994 2.442 0 .939-.331 1.749-.994 2.429-.663.68-1.466 1.02-2.408 1.02-.943 0-1.746-.34-2.409-1.02-.663-.68-.994-1.49-.994-2.43 0-.955.331-1.768.994-2.44a3.258 3.258 0 0 1 2.409-1.009Zm-7 0c.942 0 1.745.336 2.408 1.008.663.673.994 1.486.994 2.442 0 .939-.331 1.749-.994 2.429-.663.68-1.466 1.02-2.408 1.02-.943 0-1.746-.34-2.409-1.02-.663-.68-.994-1.49-.994-2.43 0-.955.331-1.768.994-2.44a3.258 3.258 0 0 1 2.409-1.009Zm24.995 0c.942 0 1.745.336 2.408 1.008.663.673.994 1.486.994 2.442 0 .939-.331 1.749-.994 2.429-.663.68-1.466 1.02-2.408 1.02-.943 0-1.745-.34-2.408-1.02-.663-.68-.995-1.49-.995-2.43 0-.955.332-1.768.995-2.44a3.258 3.258 0 0 1 2.408-1.009Zm-65.943-.059c.975 0 1.805.338 2.491 1.013a3.316 3.316 0 0 1 1.03 2.454c0 .96-.344 1.778-1.03 2.453-.686.676-1.516 1.014-2.491 1.014-.96 0-1.786-.338-2.48-1.014-.694-.675-1.041-1.493-1.041-2.453a3.362 3.362 0 0 1 1.054-2.441c.686-.668 1.516-1.001 2.491-1.001h.075l-.1-.025Zm7.909 0c.958 0 1.78.342 2.467 1.026.686.683 1.029 1.497 1.029 2.44 0 .961-.343 1.779-1.03 2.454-.685.676-1.516 1.014-2.491 1.014-.959 0-1.785-.338-2.48-1.014-.694-.675-1.04-1.493-1.04-2.453a3.362 3.362 0 0 1 1.053-2.441c.686-.668 1.516-1.001 2.492-1.001h.099l-.1-.025Zm40.039 1.225c-.592 0-1.103.219-1.534.656a2.139 2.139 0 0 0-.647 1.555c0 .615.216 1.137.647 1.567a2.1 2.1 0 0 0 1.534.643 2.09 2.09 0 0 0 1.545-.643c.423-.43.635-.952.635-1.567 0-.6-.212-1.118-.635-1.555a2.07 2.07 0 0 0-1.545-.656Zm-7 0c-.592 0-1.103.219-1.534.656a2.139 2.139 0 0 0-.647 1.555c0 .615.216 1.137.647 1.567a2.1 2.1 0 0 0 1.534.643 2.09 2.09 0 0 0 1.545-.643c.423-.43.635-.952.635-1.567 0-.6-.212-1.118-.635-1.555a2.07 2.07 0 0 0-1.545-.656Zm24.995 0a2.07 2.07 0 0 0-1.546.656 2.16 2.16 0 0 0-.635 1.555c0 .615.212 1.137.635 1.567.424.429.939.643 1.546.643a2.09 2.09 0 0 0 1.545-.643c.424-.43.635-.952.635-1.567 0-.6-.211-1.118-.635-1.555a2.07 2.07 0 0 0-1.545-.656ZM83 20.312v2.818a.538.538 0 0 1-.168.388.55.55 0 0 1-.407.17H78.95a.55.55 0 0 1-.407-.17.538.538 0 0 1-.168-.388v-2.818H83ZM8.455 19.238c-.612 0-1.14.216-1.587.647-.447.432-.67.957-.67 1.575 0 .619.223 1.143.67 1.575.446.431.975.647 1.587.647.628 0 1.16-.216 1.599-.647.438-.432.657-.956.657-1.575 0-.618-.22-1.143-.657-1.575a2.194 2.194 0 0 0-1.6-.647Zm7.909 0c-.628 0-1.162.216-1.6.647a2.127 2.127 0 0 0-.657 1.575c0 .619.22 1.143.657 1.575.438.431.972.647 1.6.647.611 0 1.14-.216 1.586-.647.447-.432.67-.956.67-1.575 0-.618-.223-1.143-.67-1.575a2.206 2.206 0 0 0-1.586-.647Zm52.714-1.137c.304 0 .563.106.779.316.216.21.324.47.324.778v3.182c0 .307-.108.57-.324.789a1.054 1.054 0 0 1-.779.328h-7.452c-.303 0-.563-.11-.779-.328a1.084 1.084 0 0 1-.323-.79v-3.181c0-.308.108-.567.323-.778.216-.21.476-.316.78-.316h7.451Zm-64.392-.059.273.415c-.33.26-.591.586-.781.977-.19.39-.285.814-.285 1.27v.195c0 .065.008.13.024.195v2.124h-.991v-2.442H2.38v-1.61h.868c.1-.212.21-.412.335-.599.124-.187.268-.354.434-.5l-.075-.025h.744ZM44 19v2H22v-2h22ZM80.7 7.243c.16 0 .283.061.371.183.088.121.148.255.18.4l1.725 5.539v6.145H78.04c-.192-.356-.69-1.053-1.375-1.51-.457-.305-1.029-.49-1.716-.554h-7.213V7.243H80.7ZM32 0v17.748H.545a.529.529 0 0 1-.384-.158A.513.513 0 0 1 0 17.21V.537C0 .391.054.264.161.16A.529.529 0 0 1 .545 0H32Zm33.835 0c.132 0 .252.045.36.134.107.09.169.208.185.354v16.723a.513.513 0 0 1-.161.379.559.559 0 0 1-.41.158H34V0h31.835ZM4 1 2 4.768h1.517v8.467H2L4 17l2-3.766H4.655V4.767H6L4 1.001Zm76.1 7.628H75.07v4.785h6.517l-1.485-4.785Zm-67.957-2.91c-.728 0-1.314.222-1.76.668-.4.4-.632.927-.694 1.578l-.015.222h1.377c0-.401.097-.714.29-.938.195-.225.465-.337.812-.337.272 0 .508.082.709.245.2.163.3.398.3.704 0 .285-.106.505-.32.658-.184.13-.439.206-.765.224l-.169.005h-.265v1.02h.224c.45 0 .8.073 1.05.22.252.146.378.426.378.84 0 .334-.109.604-.326.812-.218.207-.497.31-.837.31-.374 0-.671-.122-.892-.366-.19-.21-.305-.495-.347-.855l-.015-.186H9.5v.082c0 .761.238 1.372.714 1.83.476.46 1.122.69 1.938.69.761 0 1.394-.218 1.897-.654.503-.435.755-1 .755-1.693 0-.401-.11-.75-.332-1.045a1.484 1.484 0 0 0-.767-.532l-.166-.045v-.02a1.28 1.28 0 0 0 .745-.535c.17-.262.255-.57.255-.923 0-.558-.232-1.027-.694-1.408-.462-.38-1.03-.571-1.703-.571ZM24.3 7.584c-.666 0-1.2.293-1.601.878-.259-.585-.772-.878-1.54-.878a1.85 1.85 0 0 0-1.5.708l-.112.15h-.02v-.715H18.16V13h1.448V9.93c0-.36.094-.65.28-.872a.879.879 0 0 1 .7-.331c.298 0 .52.081.662.244.125.143.195.395.211.757l.003.161V13h1.449v-2.947c0-.884.323-1.326.969-1.326.313 0 .539.088.678.265.122.155.19.419.206.792l.003.167V13h1.449V9.46c0-.585-.155-1.044-.464-1.377-.31-.333-.794-.5-1.454-.5Zm49.69-6.583c4.336 0 6.285 4.056 6.54 5.32H67.737V1h6.254Z"/></svg>