<svg width="56" height="25" xmlns="http://www.w3.org/2000/svg"><path d="M40.781 21.92h-.64v1.003h.739v.537h-2.241v-.537h.64V21.92h-.64v-3.202h2.24l-.098 3.202ZM3.916 18.06h.738l.271.415c-.328.26-.587.587-.775.978a2.884 2.884 0 0 0-.284 1.27v.196c0 .065.009.13.025.195v2.126h-.985v-2.443h-.542v-1.613h.862c.099-.212.21-.412.332-.599.124-.187.267-.354.431-.5l-.073-.025Zm4.482 5.645a2.17 2.17 0 0 0 1.588-.648c.435-.432.653-.957.653-1.576 0-.62-.218-1.145-.653-1.576a2.17 2.17 0 0 0-1.588-.648c-.608 0-1.133.216-1.577.648a2.117 2.117 0 0 0-.664 1.576c0 .619.221 1.144.664 1.576.444.432.97.648 1.577.648Zm0-5.645c.968 0 1.793.338 2.474 1.014a3.332 3.332 0 0 1 1.022 2.456c0 .961-.34 1.78-1.022 2.456-.68.676-1.506 1.014-2.474 1.014-.953 0-1.774-.338-2.463-1.014A3.313 3.313 0 0 1 4.9 21.53a3.378 3.378 0 0 1 1.046-2.444c.682-.668 1.507-1.002 2.475-1.002h.074l-.098-.024Zm7.855 5.645c.608 0 1.133-.216 1.576-.648.444-.432.665-.957.665-1.576 0-.62-.221-1.145-.665-1.576a2.183 2.183 0 0 0-1.576-.648 2.17 2.17 0 0 0-1.588.648 2.137 2.137 0 0 0-.653 1.576c0 .619.218 1.144.653 1.576a2.17 2.17 0 0 0 1.588.648Zm0-5.645c.953 0 1.77.342 2.45 1.026.682.684 1.023 1.499 1.023 2.444 0 .961-.341 1.78-1.022 2.456-.682.676-1.507 1.014-2.475 1.014-.953 0-1.773-.338-2.463-1.014a3.313 3.313 0 0 1-1.034-2.456 3.378 3.378 0 0 1 1.046-2.444c.682-.668 1.507-1.002 2.475-1.002h.099l-.099-.024Zm7.708 5.645a2.17 2.17 0 0 0 1.589-.648c.435-.432.652-.957.652-1.576 0-.62-.217-1.145-.652-1.576a2.17 2.17 0 0 0-1.589-.648 2.17 2.17 0 0 0-1.588.648 2.137 2.137 0 0 0-.653 1.576c0 .619.218 1.144.653 1.576a2.17 2.17 0 0 0 1.588.648Zm0-5.645c.969 0 1.794.342 2.475 1.026.682.684 1.022 1.499 1.022 2.444 0 .961-.34 1.78-1.022 2.456-.681.676-1.506 1.014-2.475 1.014-.968 0-1.793-.338-2.475-1.014a3.332 3.332 0 0 1-1.022-2.456c0-.961.341-1.776 1.022-2.444.682-.668 1.507-1.002 2.475-1.002h.123l-.123-.024Zm13.594 3.91h-9.013v-3.25h9.013v3.25ZM55.458 0c.132 0 .25.045.357.134A.52.52 0 0 1 56 .49v16.74a.515.515 0 0 1-.16.379.553.553 0 0 1-.406.158l-34.68-.001c.023-.425.112-.704.325-1.115l.219-.407c.323-.623.444-1.065.444-1.83 0-.766-.121-1.208-.444-1.83l-.218-.408c-.253-.487-.331-.788-.331-1.367s.078-.88.33-1.366l.219-.407c.323-.623.444-1.065.444-1.83 0-.85-.15-1.3-.56-2.044l-.103-.192c-.252-.487-.33-.788-.33-1.367 0-.651.098-.95.434-1.558l.115-.215c.323-.622.444-1.064.444-1.829h33.716Zm-34.71 0-.003.205c-.021.516-.133.813-.43 1.353l-.116.215c-.323.622-.444 1.064-.444 1.829 0 .765.121 1.207.444 1.83l.219.407c.252.487.33.788.33 1.366 0 .652-.098.95-.434 1.558l-.115.215c-.323.623-.444 1.065-.444 1.83 0 .765.121 1.208.444 1.83l.219.408c.252.486.33.787.33 1.366 0 .58-.078.881-.33 1.368l-.219.407c-.286.552-.413.962-.439 1.58H.542a.523.523 0 0 1-.382-.16.515.515 0 0 1-.16-.378V.538C0 .39.053.265.16.158A.523.523 0 0 1 .542 0h20.207Zm31.895 1.001-1.987 3.77h1.507v8.475h-1.507l1.987 3.77 1.986-3.77h-1.336V4.771h1.336l-1.986-3.77Zm-21.7 11.954c.756 0 1.384-.217 1.884-.653.5-.436.75-1 .75-1.695 0-.401-.11-.75-.33-1.046-.219-.296-.528-.489-.926-.577v-.02c.324-.096.57-.275.74-.537.168-.262.252-.57.252-.924 0-.558-.23-1.027-.688-1.409-.46-.38-1.024-.571-1.692-.571-.723 0-1.306.223-1.748.668-.442.446-.677 1.047-.704 1.802h1.368c0-.401.096-.714.288-.939.193-.225.461-.337.806-.337.27 0 .505.082.704.245.2.164.299.398.299.705 0 .286-.107.505-.32.658-.212.153-.521.23-.926.23h-.264v1.021h.223c.446 0 .794.073 1.044.22.25.146.374.427.374.842 0 .333-.108.604-.324.811-.216.208-.493.312-.83.312-.372 0-.667-.123-.887-.368-.22-.245-.34-.592-.36-1.041H28.31v.082c0 .762.236 1.373.709 1.832.473.46 1.114.69 1.925.69Zm7.406-.142V9.739c0-.36.093-.651.278-.873a.87.87 0 0 1 .694-.331c.297 0 .517.081.659.245.142.163.213.47.213.918v3.115h1.438V9.862c0-.885.321-1.327.963-1.327.31 0 .535.088.673.265.139.177.208.497.208.96v3.053h1.439V9.27c0-.586-.154-1.045-.461-1.379-.308-.333-.789-.5-1.444-.5-.662 0-1.192.293-1.59.878-.257-.585-.767-.878-1.53-.878-.669 0-1.203.286-1.601.858h-.02v-.715H36.91v5.279h1.439Z"/></svg>