<svg width="30" height="25" xmlns="http://www.w3.org/2000/svg"><path d="M3.403 23.688a2.09 2.09 0 0 0 1.545-.643c.423-.43.635-.952.635-1.567 0-.6-.212-1.118-.635-1.555a2.07 2.07 0 0 0-1.545-.656c-.592 0-1.103.219-1.534.656a2.139 2.139 0 0 0-.647 1.555c0 .615.216 1.137.647 1.567a2.1 2.1 0 0 0 1.534.643Zm0-5.587c.942 0 1.745.336 2.408 1.008.663.672.994 1.486.994 2.442 0 .939-.331 1.749-.994 2.429-.663.68-1.466 1.02-2.408 1.02-.943 0-1.746-.34-2.409-1.02C.331 23.3 0 22.49 0 21.55c0-.955.331-1.769.994-2.44A3.258 3.258 0 0 1 3.403 18.1Zm17.995 5.587a2.09 2.09 0 0 0 1.545-.643c.424-.43.635-.952.635-1.567 0-.6-.211-1.118-.635-1.555a2.07 2.07 0 0 0-1.545-.656 2.07 2.07 0 0 0-1.546.656 2.16 2.16 0 0 0-.635 1.555c0 .615.212 1.137.635 1.567.424.429.939.643 1.546.643Zm0-5.587c.942 0 1.745.336 2.408 1.008.663.672.994 1.486.994 2.442 0 .939-.331 1.749-.994 2.429-.663.68-1.466 1.02-2.408 1.02-.943 0-1.745-.34-2.408-1.02-.663-.68-.995-1.49-.995-2.43 0-.955.332-1.769.995-2.44a3.258 3.258 0 0 1 2.408-1.009Zm-12.772 0h7.452c.304 0 .563.105.779.316.216.21.324.47.324.777v3.183c0 .307-.108.57-.324.789a1.054 1.054 0 0 1-.779.328H8.626c-.303 0-.563-.11-.779-.328a1.084 1.084 0 0 1-.323-.79v-3.182c0-.307.108-.566.323-.777.216-.21.476-.316.78-.316ZM30 20.311v2.819a.538.538 0 0 1-.168.388.55.55 0 0 1-.407.17H25.95a.55.55 0 0 1-.407-.17.538.538 0 0 1-.168-.388v-2.818H30ZM23.982 0c2.479 0 3.662 2.107 3.55 6.32H14.736V0h9.246ZM26.7 3H15.2v.5h11.5V3Zm1.886 10.413-1.485-4.785h-5.032v4.785h6.517Zm-6.637 4.032h-7.213V7.243H27.7c.16 0 .283.06.371.182.088.122.148.255.18.4l1.725 5.54v6.145H25.04c-.192-.356-.637-1.07-1.33-1.532-.46-.308-1.048-.486-1.761-.533ZM14 16v1H0v-1h14ZM2 13v1H0v-1h2Zm3 0v1H3v-1h2Zm3 0v1H6v-1h2Zm3 0v1H9v-1h2Zm3 0v1h-2v-1h2Z"/></svg>